<svg xmlns="http://www.w3.org/2000/svg" enable-background="new 0 0 2000 2000" viewBox="0 0 2000 2000" id="letter-m"><path fill="#bd7ec4" d="M1693.11,1850h-101.92c-60.29,0-109.16-48.87-109.16-109.16V703.43c0-22.39-4.31-43.29-12.88-62.71
			c-8.59-19.4-20.16-36.39-34.71-50.95c-14.56-14.55-31.54-25.93-50.95-34.15c-19.42-8.21-40.31-12.32-62.7-12.32
			c-22.4,0-43.3,4.11-62.7,12.32c-19.42,8.22-36.39,19.6-50.95,34.15c-14.56,14.56-25.95,31.54-34.15,50.95
			c-8.22,19.42-12.32,40.31-12.32,62.71v1037.42c0,60.29-48.87,109.16-109.16,109.16H948.48c-60.29,0-109.16-48.87-109.16-109.16
			V703.43c0-22.39-4.11-43.29-12.32-62.71c-8.22-19.4-19.6-36.39-34.15-50.95c-14.56-14.55-31.54-25.93-50.95-34.15
			c-19.42-8.21-40.31-12.32-62.71-12.32s-43.3,4.11-62.7,12.32c-19.42,8.22-36.39,19.6-50.95,34.15
			c-14.56,14.56-25.95,31.54-34.15,50.95c-8.22,19.42-12.32,40.31-12.32,62.71v1037.42c0,60.29-48.87,109.16-109.16,109.16H306.89
			c-60.29,0-109.16-48.87-109.16-109.16V703.43c0-66.43,12.49-128.94,37.51-187.55c25-58.59,59.35-109.73,103.01-153.4
			c43.67-43.67,94.79-78,153.4-103.01c58.59-25,121.1-37.51,187.55-37.51c59.71,0,117.19,10.63,172.44,31.91
			c40.64,15.65,78.26,36.46,112.85,62.43c21.42,16.08,50.74,16.06,72.14-0.04c34.5-25.95,71.93-46.74,112.29-62.39
			c54.86-21.28,112.14-31.91,171.87-31.91c66.43,0,128.94,12.51,187.55,37.51c58.59,25.02,109.73,59.34,153.4,103.01
			c43.67,43.67,78,94.81,103.01,153.4c25,58.61,37.51,121.12,37.51,187.55v1037.42C1802.27,1801.13,1753.4,1850,1693.11,1850z"></path><circle cx="823.36" cy="286.32" r="136.32" fill="#fff" stroke="#bd7ec4" stroke-miterlimit="10" stroke-width="18.202"></circle><circle cx="853.69" cy="255.99" r="78.15" fill="#7f4f7d"></circle><circle cx="1176.64" cy="286.32" r="136.32" fill="#fff" stroke="#bd7ec4" stroke-miterlimit="10" stroke-width="18.202"></circle><circle cx="1206.98" cy="255.99" r="78.15" fill="#7f4f7d"></circle><g><ellipse cx="687.86" cy="465.87" fill="#ffb8a7" rx="68.96" ry="43.23"></ellipse><ellipse cx="1312.14" cy="465.87" fill="#ffb8a7" rx="68.96" ry="43.23"></ellipse></g><path fill="none" stroke="#7f4f7d" stroke-linecap="round" stroke-miterlimit="10" stroke-width="37.246" d="M907.61,524.09
			c92.39,78.23,184.79,0,184.79,0"></path></svg>